<?xml version="1.0" encoding="utf-8"?>
<!-- Generator: Adobe Illustrator 27.3.1, SVG Export Plug-In . SVG Version: 6.00 Build 0)  -->
<svg version="1.1" id="Calque_1" xmlns="http://www.w3.org/2000/svg" xmlns:xlink="http://www.w3.org/1999/xlink" x="0px" y="0px"
	 viewBox="0 0 675.87 305.42" style="enable-background:new 0 0 675.87 305.42;" xml:space="preserve">
<style type="text/css">
	.st0{display:none;fill:#1B1B37;}
	.st1{fill:#0D9CA0;}
	.st2{fill:#E30613;}
	.st3{fill:#F9B233;}
	.st4{font-family:'Gilroy-UltraLight';}
	.st5{font-size:72px;}
	.st6{letter-spacing:68;}
	.st7{fill:#BE1622;}
	.st8{fill:#FFFFFF;}
	.st9{font-family:'Gilroy-Regular';}
	.st10{font-size:27px;}
</style>
<g>
	<rect class="st0" width="675.87" height="305.42"/>
	<rect x="175.99" y="203.13" class="st1" width="7.4" height="37.13"/>
	<rect x="57.99" y="203.13" class="st1" width="7.4" height="37.13"/>
	<polygon class="st1" points="183.39,100.26 183.39,151.02 175.99,151.02 175.99,111.06 151.57,151.02 143.36,151.02 174.39,100.26 
			"/>
	<polygon class="st1" points="98.02,151.02 89.81,151.02 65.39,111.07 65.39,151.02 57.99,151.02 57.99,100.26 66.99,100.26 	"/>
	<path class="st1" d="M349.35,203.13c-3.36,6.55-7.85,12.63-13.46,18.23c-14.07,14.07-31.1,21.1-51.1,21.1s-37.03-7.03-51.1-21.1
		c-5.61-5.6-10.1-11.68-13.46-18.23h8.39c2.76,4.69,6.18,9.1,10.27,13.23c12.6,12.73,27.9,19.1,45.9,19.1s33.3-6.37,45.9-19.1
		c4.09-4.13,7.51-8.54,10.27-13.23H349.35z"/>
	<path class="st1" d="M354.58,151.02h-7.68c-2.96-9.98-8.36-18.93-16.21-26.86c-12.6-12.73-27.9-19.1-45.9-19.1
		s-33.3,6.37-45.9,19.1c-7.85,7.93-13.25,16.88-16.21,26.86H215c3.14-11.92,9.37-22.54,18.69-31.86c14.07-14.07,31.1-21.1,51.1-21.1
		s37.03,7.03,51.1,21.1C345.21,128.48,351.44,139.1,354.58,151.02z"/>
	<path class="st1" d="M496.45,203.13c-2.94,6.05-6.79,11.66-11.56,16.83c-12.47,13.53-28.23,20.3-47.3,20.3h-51.4v-37.13h7.4v30.33
		h44c17.07,0,31.13-6.1,42.2-18.3c3.4-3.75,6.28-7.76,8.63-12.03H496.45z"/>
	<path class="st1" d="M501.35,151.02h-7.42c-2.62-9.6-7.33-18.16-14.14-25.66c-11.07-12.2-25.13-18.3-42.2-18.3h-44v43.96h-7.4
		v-50.76h51.4c19.07,0,34.83,6.77,47.3,20.3C493.05,129.41,498.54,139.57,501.35,151.02z"/>
	<polygon class="st1" points="535.39,203.12 535.35,203.25 535.31,203.36 520.99,240.25 513.19,240.25 527.72,203.12 	"/>
	<polygon class="st1" points="630.99,240.25 623.19,240.25 608.77,203.25 608.76,203.25 608.72,203.12 616.4,203.12 	"/>
	<polygon class="st1" points="595.93,151.02 588.42,151.02 571.99,108.86 555.63,151.02 548.12,151.02 567.99,100.26 575.98,100.26 
			"/>
	<path class="st2" d="M535.35,203.25"/>
	<text transform="matrix(1 0 0 0.89 101.6757 200.2522)" class="st3 st4 st5 st6">RAKIA</text>
	<circle class="st3" cx="76.26" cy="221.69" r="4.52"/>
	<path class="st7" d="M316.64,55.64h-3.8c-1.46,4.8-4.14,9.1-8.02,12.91c-6.24,6.12-13.81,9.18-22.71,9.18
		c-8.91,0-16.48-3.06-22.71-9.18c-3.88-3.81-6.56-8.11-8.02-12.91h-3.8c1.55,5.73,4.64,10.83,9.25,15.31
		c6.96,6.76,15.39,10.14,25.29,10.14c9.9,0,18.33-3.38,25.29-10.14C312,66.47,315.09,61.37,316.64,55.64z"/>
	<rect x="281.74" y="55.64" class="st7" width="3.33" height="71.34"/>
	<rect x="555.64" y="83.74" class="st7" width="3.36" height="16.51"/>
	<rect x="570.64" y="83.74" class="st3" width="3.36" height="16.51"/>
	<rect x="584.64" y="83.74" class="st7" width="3.36" height="16.51"/>
	
		<rect x="570.16" y="82.41" transform="matrix(4.205531e-11 -1 1 4.205531e-11 473.232 670.4131)" class="st7" width="3.33" height="32.36"/>
	<circle class="st3" cx="46.68" cy="221.69" r="4.52"/>
</g>
<text transform="matrix(1 0 0 1 510.2855 266.8247)" class="st8 st9 st10">PATTERNS</text>
</svg>
